<mxfile host="app.diagrams.net" modified="2023-04-22T15:39:01.948Z" agent="Mozilla/5.0 (Windows NT 10.0; Win64; x64) AppleWebKit/537.36 (KHTML, like Gecko) Chrome/112.0.0.0 Safari/537.36" etag="Iy6usXNiYx5zoLrgf2I4" version="21.2.1" type="device">
  <diagram name="Page-1" id="JFPWe7mald3QKGkVfx7v">
    <mxGraphModel dx="1674" dy="802" grid="1" gridSize="10" guides="1" tooltips="1" connect="1" arrows="1" fold="1" page="1" pageScale="1" pageWidth="3300" pageHeight="4681" math="0" shadow="0">
      <root>
        <mxCell id="0" />
        <mxCell id="1" parent="0" />
        <mxCell id="6YLU8XS6Di3FJssSOhAg-2" value="POJOS" style="swimlane;whiteSpace=wrap;html=1;" vertex="1" parent="1">
          <mxGeometry x="50" y="30" width="840" height="710" as="geometry" />
        </mxCell>
        <mxCell id="6YLU8XS6Di3FJssSOhAg-3" value="BancaryAcccount" style="swimlane;fontStyle=0;childLayout=stackLayout;horizontal=1;startSize=26;fillColor=none;horizontalStack=0;resizeParent=1;resizeParentMax=0;resizeLast=0;collapsible=1;marginBottom=0;whiteSpace=wrap;html=1;" vertex="1" parent="6YLU8XS6Di3FJssSOhAg-2">
          <mxGeometry x="20" y="50" width="140" height="78" as="geometry" />
        </mxCell>
        <mxCell id="6YLU8XS6Di3FJssSOhAg-4" value="+ int: accountId" style="text;strokeColor=none;fillColor=none;align=left;verticalAlign=top;spacingLeft=4;spacingRight=4;overflow=hidden;rotatable=0;points=[[0,0.5],[1,0.5]];portConstraint=eastwest;whiteSpace=wrap;html=1;" vertex="1" parent="6YLU8XS6Di3FJssSOhAg-3">
          <mxGeometry y="26" width="140" height="26" as="geometry" />
        </mxCell>
        <mxCell id="6YLU8XS6Di3FJssSOhAg-5" value="+ float: money" style="text;strokeColor=none;fillColor=none;align=left;verticalAlign=top;spacingLeft=4;spacingRight=4;overflow=hidden;rotatable=0;points=[[0,0.5],[1,0.5]];portConstraint=eastwest;whiteSpace=wrap;html=1;" vertex="1" parent="6YLU8XS6Di3FJssSOhAg-3">
          <mxGeometry y="52" width="140" height="26" as="geometry" />
        </mxCell>
        <mxCell id="6YLU8XS6Di3FJssSOhAg-7" value="Casino" style="swimlane;fontStyle=0;childLayout=stackLayout;horizontal=1;startSize=26;fillColor=none;horizontalStack=0;resizeParent=1;resizeParentMax=0;resizeLast=0;collapsible=1;marginBottom=0;whiteSpace=wrap;html=1;" vertex="1" parent="6YLU8XS6Di3FJssSOhAg-2">
          <mxGeometry x="250" y="50" width="140" height="78" as="geometry" />
        </mxCell>
        <mxCell id="6YLU8XS6Di3FJssSOhAg-8" value="+ int: casinoId" style="text;strokeColor=none;fillColor=none;align=left;verticalAlign=top;spacingLeft=4;spacingRight=4;overflow=hidden;rotatable=0;points=[[0,0.5],[1,0.5]];portConstraint=eastwest;whiteSpace=wrap;html=1;" vertex="1" parent="6YLU8XS6Di3FJssSOhAg-7">
          <mxGeometry y="26" width="140" height="26" as="geometry" />
        </mxCell>
        <mxCell id="6YLU8XS6Di3FJssSOhAg-9" value="+ int: accountId" style="text;strokeColor=none;fillColor=none;align=left;verticalAlign=top;spacingLeft=4;spacingRight=4;overflow=hidden;rotatable=0;points=[[0,0.5],[1,0.5]];portConstraint=eastwest;whiteSpace=wrap;html=1;" vertex="1" parent="6YLU8XS6Di3FJssSOhAg-7">
          <mxGeometry y="52" width="140" height="26" as="geometry" />
        </mxCell>
        <mxCell id="6YLU8XS6Di3FJssSOhAg-12" value="Client" style="swimlane;fontStyle=0;childLayout=stackLayout;horizontal=1;startSize=26;fillColor=none;horizontalStack=0;resizeParent=1;resizeParentMax=0;resizeLast=0;collapsible=1;marginBottom=0;whiteSpace=wrap;html=1;" vertex="1" parent="6YLU8XS6Di3FJssSOhAg-2">
          <mxGeometry x="530" y="28" width="260" height="208" as="geometry" />
        </mxCell>
        <mxCell id="6YLU8XS6Di3FJssSOhAg-13" value="+ int: clientId" style="text;strokeColor=none;fillColor=none;align=left;verticalAlign=top;spacingLeft=4;spacingRight=4;overflow=hidden;rotatable=0;points=[[0,0.5],[1,0.5]];portConstraint=eastwest;whiteSpace=wrap;html=1;" vertex="1" parent="6YLU8XS6Di3FJssSOhAg-12">
          <mxGeometry y="26" width="260" height="26" as="geometry" />
        </mxCell>
        <mxCell id="6YLU8XS6Di3FJssSOhAg-14" value="+ int: phone" style="text;strokeColor=none;fillColor=none;align=left;verticalAlign=top;spacingLeft=4;spacingRight=4;overflow=hidden;rotatable=0;points=[[0,0.5],[1,0.5]];portConstraint=eastwest;whiteSpace=wrap;html=1;" vertex="1" parent="6YLU8XS6Di3FJssSOhAg-12">
          <mxGeometry y="52" width="260" height="26" as="geometry" />
        </mxCell>
        <mxCell id="6YLU8XS6Di3FJssSOhAg-111" value="+ float: money" style="text;strokeColor=none;fillColor=none;align=left;verticalAlign=top;spacingLeft=4;spacingRight=4;overflow=hidden;rotatable=0;points=[[0,0.5],[1,0.5]];portConstraint=eastwest;whiteSpace=wrap;html=1;" vertex="1" parent="6YLU8XS6Di3FJssSOhAg-12">
          <mxGeometry y="78" width="260" height="26" as="geometry" />
        </mxCell>
        <mxCell id="6YLU8XS6Di3FJssSOhAg-15" value="+ float: money" style="text;strokeColor=none;fillColor=none;align=left;verticalAlign=top;spacingLeft=4;spacingRight=4;overflow=hidden;rotatable=0;points=[[0,0.5],[1,0.5]];portConstraint=eastwest;whiteSpace=wrap;html=1;" vertex="1" parent="6YLU8XS6Di3FJssSOhAg-12">
          <mxGeometry y="104" width="260" height="26" as="geometry" />
        </mxCell>
        <mxCell id="6YLU8XS6Di3FJssSOhAg-113" value="+ String: name" style="text;strokeColor=none;fillColor=none;align=left;verticalAlign=top;spacingLeft=4;spacingRight=4;overflow=hidden;rotatable=0;points=[[0,0.5],[1,0.5]];portConstraint=eastwest;whiteSpace=wrap;html=1;" vertex="1" parent="6YLU8XS6Di3FJssSOhAg-12">
          <mxGeometry y="130" width="260" height="26" as="geometry" />
        </mxCell>
        <mxCell id="6YLU8XS6Di3FJssSOhAg-115" value="+ boolean: condition" style="text;strokeColor=none;fillColor=none;align=left;verticalAlign=top;spacingLeft=4;spacingRight=4;overflow=hidden;rotatable=0;points=[[0,0.5],[1,0.5]];portConstraint=eastwest;whiteSpace=wrap;html=1;" vertex="1" parent="6YLU8XS6Di3FJssSOhAg-12">
          <mxGeometry y="156" width="260" height="26" as="geometry" />
        </mxCell>
        <mxCell id="6YLU8XS6Di3FJssSOhAg-114" value="+ String: surname" style="text;strokeColor=none;fillColor=none;align=left;verticalAlign=top;spacingLeft=4;spacingRight=4;overflow=hidden;rotatable=0;points=[[0,0.5],[1,0.5]];portConstraint=eastwest;whiteSpace=wrap;html=1;" vertex="1" parent="6YLU8XS6Di3FJssSOhAg-12">
          <mxGeometry y="182" width="260" height="26" as="geometry" />
        </mxCell>
        <mxCell id="6YLU8XS6Di3FJssSOhAg-16" value="Game" style="swimlane;fontStyle=0;childLayout=stackLayout;horizontal=1;startSize=26;fillColor=none;horizontalStack=0;resizeParent=1;resizeParentMax=0;resizeLast=0;collapsible=1;marginBottom=0;whiteSpace=wrap;html=1;" vertex="1" parent="6YLU8XS6Di3FJssSOhAg-2">
          <mxGeometry x="20" y="210" width="140" height="104" as="geometry" />
        </mxCell>
        <mxCell id="6YLU8XS6Di3FJssSOhAg-17" value="+ int: clientId" style="text;strokeColor=none;fillColor=none;align=left;verticalAlign=top;spacingLeft=4;spacingRight=4;overflow=hidden;rotatable=0;points=[[0,0.5],[1,0.5]];portConstraint=eastwest;whiteSpace=wrap;html=1;" vertex="1" parent="6YLU8XS6Di3FJssSOhAg-16">
          <mxGeometry y="26" width="140" height="26" as="geometry" />
        </mxCell>
        <mxCell id="6YLU8XS6Di3FJssSOhAg-18" value="+ int: machineId" style="text;strokeColor=none;fillColor=none;align=left;verticalAlign=top;spacingLeft=4;spacingRight=4;overflow=hidden;rotatable=0;points=[[0,0.5],[1,0.5]];portConstraint=eastwest;whiteSpace=wrap;html=1;" vertex="1" parent="6YLU8XS6Di3FJssSOhAg-16">
          <mxGeometry y="52" width="140" height="26" as="geometry" />
        </mxCell>
        <mxCell id="6YLU8XS6Di3FJssSOhAg-19" value="+ int: timeStamp" style="text;strokeColor=none;fillColor=none;align=left;verticalAlign=top;spacingLeft=4;spacingRight=4;overflow=hidden;rotatable=0;points=[[0,0.5],[1,0.5]];portConstraint=eastwest;whiteSpace=wrap;html=1;" vertex="1" parent="6YLU8XS6Di3FJssSOhAg-16">
          <mxGeometry y="78" width="140" height="26" as="geometry" />
        </mxCell>
        <mxCell id="6YLU8XS6Di3FJssSOhAg-20" value="Machine" style="swimlane;fontStyle=0;childLayout=stackLayout;horizontal=1;startSize=26;fillColor=none;horizontalStack=0;resizeParent=1;resizeParentMax=0;resizeLast=0;collapsible=1;marginBottom=0;whiteSpace=wrap;html=1;" vertex="1" parent="6YLU8XS6Di3FJssSOhAg-2">
          <mxGeometry x="210" y="210" width="140" height="104" as="geometry" />
        </mxCell>
        <mxCell id="6YLU8XS6Di3FJssSOhAg-21" value="+ int: MachineId" style="text;strokeColor=none;fillColor=none;align=left;verticalAlign=top;spacingLeft=4;spacingRight=4;overflow=hidden;rotatable=0;points=[[0,0.5],[1,0.5]];portConstraint=eastwest;whiteSpace=wrap;html=1;" vertex="1" parent="6YLU8XS6Di3FJssSOhAg-20">
          <mxGeometry y="26" width="140" height="26" as="geometry" />
        </mxCell>
        <mxCell id="6YLU8XS6Di3FJssSOhAg-22" value="+ float: moneyWon" style="text;strokeColor=none;fillColor=none;align=left;verticalAlign=top;spacingLeft=4;spacingRight=4;overflow=hidden;rotatable=0;points=[[0,0.5],[1,0.5]];portConstraint=eastwest;whiteSpace=wrap;html=1;" vertex="1" parent="6YLU8XS6Di3FJssSOhAg-20">
          <mxGeometry y="52" width="140" height="26" as="geometry" />
        </mxCell>
        <mxCell id="6YLU8XS6Di3FJssSOhAg-23" value="+ String: machineName" style="text;strokeColor=none;fillColor=none;align=left;verticalAlign=top;spacingLeft=4;spacingRight=4;overflow=hidden;rotatable=0;points=[[0,0.5],[1,0.5]];portConstraint=eastwest;whiteSpace=wrap;html=1;" vertex="1" parent="6YLU8XS6Di3FJssSOhAg-20">
          <mxGeometry y="78" width="140" height="26" as="geometry" />
        </mxCell>
        <mxCell id="6YLU8XS6Di3FJssSOhAg-24" value="Match" style="swimlane;fontStyle=0;childLayout=stackLayout;horizontal=1;startSize=26;fillColor=none;horizontalStack=0;resizeParent=1;resizeParentMax=0;resizeLast=0;collapsible=1;marginBottom=0;whiteSpace=wrap;html=1;" vertex="1" parent="6YLU8XS6Di3FJssSOhAg-2">
          <mxGeometry x="490" y="286" width="140" height="104" as="geometry" />
        </mxCell>
        <mxCell id="6YLU8XS6Di3FJssSOhAg-25" value="+ int: clientId" style="text;strokeColor=none;fillColor=none;align=left;verticalAlign=top;spacingLeft=4;spacingRight=4;overflow=hidden;rotatable=0;points=[[0,0.5],[1,0.5]];portConstraint=eastwest;whiteSpace=wrap;html=1;" vertex="1" parent="6YLU8XS6Di3FJssSOhAg-24">
          <mxGeometry y="26" width="140" height="26" as="geometry" />
        </mxCell>
        <mxCell id="6YLU8XS6Di3FJssSOhAg-26" value="+ int: tableId" style="text;strokeColor=none;fillColor=none;align=left;verticalAlign=top;spacingLeft=4;spacingRight=4;overflow=hidden;rotatable=0;points=[[0,0.5],[1,0.5]];portConstraint=eastwest;whiteSpace=wrap;html=1;" vertex="1" parent="6YLU8XS6Di3FJssSOhAg-24">
          <mxGeometry y="52" width="140" height="26" as="geometry" />
        </mxCell>
        <mxCell id="6YLU8XS6Di3FJssSOhAg-27" value="+ int: timeStamp" style="text;strokeColor=none;fillColor=none;align=left;verticalAlign=top;spacingLeft=4;spacingRight=4;overflow=hidden;rotatable=0;points=[[0,0.5],[1,0.5]];portConstraint=eastwest;whiteSpace=wrap;html=1;" vertex="1" parent="6YLU8XS6Di3FJssSOhAg-24">
          <mxGeometry y="78" width="140" height="26" as="geometry" />
        </mxCell>
        <mxCell id="6YLU8XS6Di3FJssSOhAg-32" value="Table" style="swimlane;fontStyle=0;childLayout=stackLayout;horizontal=1;startSize=26;fillColor=none;horizontalStack=0;resizeParent=1;resizeParentMax=0;resizeLast=0;collapsible=1;marginBottom=0;whiteSpace=wrap;html=1;" vertex="1" parent="6YLU8XS6Di3FJssSOhAg-2">
          <mxGeometry x="40" y="372" width="140" height="106" as="geometry" />
        </mxCell>
        <mxCell id="6YLU8XS6Di3FJssSOhAg-33" value="+ int: tableId" style="text;strokeColor=none;fillColor=none;align=left;verticalAlign=top;spacingLeft=4;spacingRight=4;overflow=hidden;rotatable=0;points=[[0,0.5],[1,0.5]];portConstraint=eastwest;whiteSpace=wrap;html=1;" vertex="1" parent="6YLU8XS6Di3FJssSOhAg-32">
          <mxGeometry y="26" width="140" height="26" as="geometry" />
        </mxCell>
        <mxCell id="6YLU8XS6Di3FJssSOhAg-34" value="+ String: gameName" style="text;strokeColor=none;fillColor=none;align=left;verticalAlign=top;spacingLeft=4;spacingRight=4;overflow=hidden;rotatable=0;points=[[0,0.5],[1,0.5]];portConstraint=eastwest;whiteSpace=wrap;html=1;" vertex="1" parent="6YLU8XS6Di3FJssSOhAg-32">
          <mxGeometry y="52" width="140" height="28" as="geometry" />
        </mxCell>
        <mxCell id="6YLU8XS6Di3FJssSOhAg-35" value="+ float: moneyWon" style="text;strokeColor=none;fillColor=none;align=left;verticalAlign=top;spacingLeft=4;spacingRight=4;overflow=hidden;rotatable=0;points=[[0,0.5],[1,0.5]];portConstraint=eastwest;whiteSpace=wrap;html=1;" vertex="1" parent="6YLU8XS6Di3FJssSOhAg-32">
          <mxGeometry y="80" width="140" height="26" as="geometry" />
        </mxCell>
        <mxCell id="6YLU8XS6Di3FJssSOhAg-41" value="«enumeration»&lt;br&gt;&lt;b&gt;Occupation&lt;/b&gt;" style="html=1;whiteSpace=wrap;direction=west;" vertex="1" parent="6YLU8XS6Di3FJssSOhAg-2">
          <mxGeometry x="640" y="286" width="150" height="60" as="geometry" />
        </mxCell>
        <mxCell id="6YLU8XS6Di3FJssSOhAg-43" value="" style="rounded=0;whiteSpace=wrap;html=1;align=left;" vertex="1" parent="6YLU8XS6Di3FJssSOhAg-2">
          <mxGeometry x="640" y="346" width="150" height="80" as="geometry" />
        </mxCell>
        <mxCell id="6YLU8XS6Di3FJssSOhAg-44" value="+ item: SECURITY" style="text;strokeColor=none;fillColor=none;align=left;verticalAlign=top;spacingLeft=4;spacingRight=4;overflow=hidden;rotatable=0;points=[[0,0.5],[1,0.5]];portConstraint=eastwest;whiteSpace=wrap;html=1;" vertex="1" parent="6YLU8XS6Di3FJssSOhAg-2">
          <mxGeometry x="640" y="346" width="140" height="26" as="geometry" />
        </mxCell>
        <mxCell id="6YLU8XS6Di3FJssSOhAg-45" value="+ item: CROUPIER" style="text;strokeColor=none;fillColor=none;align=left;verticalAlign=top;spacingLeft=4;spacingRight=4;overflow=hidden;rotatable=0;points=[[0,0.5],[1,0.5]];portConstraint=eastwest;whiteSpace=wrap;html=1;" vertex="1" parent="6YLU8XS6Di3FJssSOhAg-2">
          <mxGeometry x="640" y="372" width="120" height="26" as="geometry" />
        </mxCell>
        <mxCell id="6YLU8XS6Di3FJssSOhAg-46" value="+ item: ADMINISTRATION" style="text;strokeColor=none;fillColor=none;align=left;verticalAlign=top;spacingLeft=4;spacingRight=4;overflow=hidden;rotatable=0;points=[[0,0.5],[1,0.5]];portConstraint=eastwest;whiteSpace=wrap;html=1;" vertex="1" parent="6YLU8XS6Di3FJssSOhAg-2">
          <mxGeometry x="640" y="398" width="160" height="26" as="geometry" />
        </mxCell>
        <mxCell id="6YLU8XS6Di3FJssSOhAg-49" value="" style="endArrow=none;html=1;rounded=0;entryX=0.431;entryY=1;entryDx=0;entryDy=0;exitX=0.75;exitY=0;exitDx=0;exitDy=0;entryPerimeter=0;" edge="1" parent="6YLU8XS6Di3FJssSOhAg-2" source="6YLU8XS6Di3FJssSOhAg-36" target="6YLU8XS6Di3FJssSOhAg-46">
          <mxGeometry width="50" height="50" relative="1" as="geometry">
            <mxPoint x="380" y="310" as="sourcePoint" />
            <mxPoint x="430" y="260" as="targetPoint" />
            <Array as="points" />
          </mxGeometry>
        </mxCell>
        <mxCell id="6YLU8XS6Di3FJssSOhAg-51" value="0...*" style="text;html=1;strokeColor=none;fillColor=none;align=center;verticalAlign=middle;whiteSpace=wrap;rounded=0;" vertex="1" parent="6YLU8XS6Di3FJssSOhAg-2">
          <mxGeometry x="680" y="461" width="60" height="30" as="geometry" />
        </mxCell>
        <mxCell id="6YLU8XS6Di3FJssSOhAg-53" value="" style="endArrow=none;html=1;rounded=0;entryX=1;entryY=0.5;entryDx=0;entryDy=0;exitX=0;exitY=0.5;exitDx=0;exitDy=0;" edge="1" parent="6YLU8XS6Di3FJssSOhAg-2" source="6YLU8XS6Di3FJssSOhAg-9" target="6YLU8XS6Di3FJssSOhAg-5">
          <mxGeometry width="50" height="50" relative="1" as="geometry">
            <mxPoint x="380" y="210" as="sourcePoint" />
            <mxPoint x="430" y="160" as="targetPoint" />
          </mxGeometry>
        </mxCell>
        <mxCell id="6YLU8XS6Di3FJssSOhAg-54" value="Has" style="text;strokeColor=none;fillColor=none;align=left;verticalAlign=middle;spacingLeft=4;spacingRight=4;overflow=hidden;points=[[0,0.5],[1,0.5]];portConstraint=eastwest;rotatable=0;whiteSpace=wrap;html=1;" vertex="1" parent="6YLU8XS6Di3FJssSOhAg-2">
          <mxGeometry x="190" y="80" width="80" height="30" as="geometry" />
        </mxCell>
        <mxCell id="6YLU8XS6Di3FJssSOhAg-55" value="0...1" style="text;strokeColor=none;fillColor=none;align=left;verticalAlign=middle;spacingLeft=4;spacingRight=4;overflow=hidden;points=[[0,0.5],[1,0.5]];portConstraint=eastwest;rotatable=0;whiteSpace=wrap;html=1;" vertex="1" parent="6YLU8XS6Di3FJssSOhAg-2">
          <mxGeometry x="160" y="90" width="40" height="30" as="geometry" />
        </mxCell>
        <mxCell id="6YLU8XS6Di3FJssSOhAg-56" value="1" style="text;strokeColor=none;fillColor=none;align=left;verticalAlign=middle;spacingLeft=4;spacingRight=4;overflow=hidden;points=[[0,0.5],[1,0.5]];portConstraint=eastwest;rotatable=0;whiteSpace=wrap;html=1;" vertex="1" parent="6YLU8XS6Di3FJssSOhAg-2">
          <mxGeometry x="230" y="90" width="50" height="30" as="geometry" />
        </mxCell>
        <mxCell id="6YLU8XS6Di3FJssSOhAg-57" value="" style="endArrow=none;html=1;rounded=0;exitX=0;exitY=0.5;exitDx=0;exitDy=0;entryX=0.6;entryY=1.038;entryDx=0;entryDy=0;entryPerimeter=0;" edge="1" parent="6YLU8XS6Di3FJssSOhAg-2" source="6YLU8XS6Di3FJssSOhAg-38" target="6YLU8XS6Di3FJssSOhAg-9">
          <mxGeometry width="50" height="50" relative="1" as="geometry">
            <mxPoint x="380" y="210" as="sourcePoint" />
            <mxPoint x="340" y="154" as="targetPoint" />
            <Array as="points">
              <mxPoint x="410" y="350" />
              <mxPoint x="380" y="180" />
            </Array>
          </mxGeometry>
        </mxCell>
        <mxCell id="6YLU8XS6Di3FJssSOhAg-58" value="Contracts" style="text;strokeColor=none;fillColor=none;align=left;verticalAlign=middle;spacingLeft=4;spacingRight=4;overflow=hidden;points=[[0,0.5],[1,0.5]];portConstraint=eastwest;rotatable=0;whiteSpace=wrap;html=1;direction=west;flipV=1;flipH=1;" vertex="1" parent="6YLU8XS6Di3FJssSOhAg-2">
          <mxGeometry x="410" y="330" width="80" height="30" as="geometry" />
        </mxCell>
        <mxCell id="6YLU8XS6Di3FJssSOhAg-59" value="1" style="text;strokeColor=none;fillColor=none;align=left;verticalAlign=middle;spacingLeft=4;spacingRight=4;overflow=hidden;points=[[0,0.5],[1,0.5]];portConstraint=eastwest;rotatable=0;whiteSpace=wrap;html=1;" vertex="1" parent="6YLU8XS6Di3FJssSOhAg-2">
          <mxGeometry x="315" y="128" width="30" height="30" as="geometry" />
        </mxCell>
        <mxCell id="6YLU8XS6Di3FJssSOhAg-60" value="0...*" style="text;strokeColor=none;fillColor=none;align=left;verticalAlign=middle;spacingLeft=4;spacingRight=4;overflow=hidden;points=[[0,0.5],[1,0.5]];portConstraint=eastwest;rotatable=0;whiteSpace=wrap;html=1;" vertex="1" parent="6YLU8XS6Di3FJssSOhAg-2">
          <mxGeometry x="580" y="500" width="30" height="30" as="geometry" />
        </mxCell>
        <mxCell id="6YLU8XS6Di3FJssSOhAg-61" value="" style="endArrow=none;html=1;rounded=0;exitX=0.5;exitY=0;exitDx=0;exitDy=0;" edge="1" parent="6YLU8XS6Di3FJssSOhAg-2" source="6YLU8XS6Di3FJssSOhAg-24">
          <mxGeometry width="50" height="50" relative="1" as="geometry">
            <mxPoint x="380" y="210" as="sourcePoint" />
            <mxPoint x="700" y="230" as="targetPoint" />
            <Array as="points">
              <mxPoint x="650" y="280" />
            </Array>
          </mxGeometry>
        </mxCell>
        <mxCell id="6YLU8XS6Di3FJssSOhAg-62" value="Plays" style="text;strokeColor=none;fillColor=none;align=left;verticalAlign=middle;spacingLeft=4;spacingRight=4;overflow=hidden;points=[[0,0.5],[1,0.5]];portConstraint=eastwest;rotatable=0;whiteSpace=wrap;html=1;" vertex="1" parent="6YLU8XS6Di3FJssSOhAg-2">
          <mxGeometry x="620" y="247" width="80" height="30" as="geometry" />
        </mxCell>
        <mxCell id="6YLU8XS6Di3FJssSOhAg-63" value="0...*" style="text;strokeColor=none;fillColor=none;align=left;verticalAlign=middle;spacingLeft=4;spacingRight=4;overflow=hidden;points=[[0,0.5],[1,0.5]];portConstraint=eastwest;rotatable=0;whiteSpace=wrap;html=1;" vertex="1" parent="6YLU8XS6Di3FJssSOhAg-2">
          <mxGeometry x="570" y="256" width="80" height="30" as="geometry" />
        </mxCell>
        <mxCell id="6YLU8XS6Di3FJssSOhAg-64" value="0...*" style="text;strokeColor=none;fillColor=none;align=left;verticalAlign=middle;spacingLeft=4;spacingRight=4;overflow=hidden;points=[[0,0.5],[1,0.5]];portConstraint=eastwest;rotatable=0;whiteSpace=wrap;html=1;" vertex="1" parent="6YLU8XS6Di3FJssSOhAg-2">
          <mxGeometry x="700" y="236" width="40" height="30" as="geometry" />
        </mxCell>
        <mxCell id="6YLU8XS6Di3FJssSOhAg-65" value="" style="endArrow=none;html=1;rounded=0;entryX=0;entryY=0.5;entryDx=0;entryDy=0;exitX=0.5;exitY=0;exitDx=0;exitDy=0;" edge="1" parent="6YLU8XS6Di3FJssSOhAg-2" source="6YLU8XS6Di3FJssSOhAg-16" target="6YLU8XS6Di3FJssSOhAg-14">
          <mxGeometry width="50" height="50" relative="1" as="geometry">
            <mxPoint x="380" y="210" as="sourcePoint" />
            <mxPoint x="430" y="160" as="targetPoint" />
            <Array as="points">
              <mxPoint x="350" y="190" />
            </Array>
          </mxGeometry>
        </mxCell>
        <mxCell id="6YLU8XS6Di3FJssSOhAg-66" value="Plays" style="text;strokeColor=none;fillColor=none;align=left;verticalAlign=middle;spacingLeft=4;spacingRight=4;overflow=hidden;points=[[0,0.5],[1,0.5]];portConstraint=eastwest;rotatable=0;whiteSpace=wrap;html=1;" vertex="1" parent="6YLU8XS6Di3FJssSOhAg-2">
          <mxGeometry x="230" y="170" width="80" height="30" as="geometry" />
        </mxCell>
        <mxCell id="6YLU8XS6Di3FJssSOhAg-67" value="0...*" style="text;strokeColor=none;fillColor=none;align=left;verticalAlign=middle;spacingLeft=4;spacingRight=4;overflow=hidden;points=[[0,0.5],[1,0.5]];portConstraint=eastwest;rotatable=0;whiteSpace=wrap;html=1;" vertex="1" parent="6YLU8XS6Di3FJssSOhAg-2">
          <mxGeometry x="440" y="90" width="40" height="30" as="geometry" />
        </mxCell>
        <mxCell id="6YLU8XS6Di3FJssSOhAg-69" value="0...*" style="text;strokeColor=none;fillColor=none;align=left;verticalAlign=middle;spacingLeft=4;spacingRight=4;overflow=hidden;points=[[0,0.5],[1,0.5]];portConstraint=eastwest;rotatable=0;whiteSpace=wrap;html=1;" vertex="1" parent="6YLU8XS6Di3FJssSOhAg-2">
          <mxGeometry x="70" y="184" width="80" height="30" as="geometry" />
        </mxCell>
        <mxCell id="6YLU8XS6Di3FJssSOhAg-71" value="Has" style="text;strokeColor=none;fillColor=none;align=left;verticalAlign=middle;spacingLeft=4;spacingRight=4;overflow=hidden;points=[[0,0.5],[1,0.5]];portConstraint=eastwest;rotatable=0;whiteSpace=wrap;html=1;" vertex="1" parent="6YLU8XS6Di3FJssSOhAg-2">
          <mxGeometry x="320" y="550" width="80" height="16" as="geometry" />
        </mxCell>
        <mxCell id="6YLU8XS6Di3FJssSOhAg-74" value="0...*" style="text;strokeColor=none;fillColor=none;align=left;verticalAlign=middle;spacingLeft=4;spacingRight=4;overflow=hidden;points=[[0,0.5],[1,0.5]];portConstraint=eastwest;rotatable=0;whiteSpace=wrap;html=1;" vertex="1" parent="6YLU8XS6Di3FJssSOhAg-2">
          <mxGeometry x="570" y="580" width="80" height="30" as="geometry" />
        </mxCell>
        <mxCell id="6YLU8XS6Di3FJssSOhAg-75" value="0...*" style="text;strokeColor=none;fillColor=none;align=left;verticalAlign=middle;spacingLeft=4;spacingRight=4;overflow=hidden;points=[[0,0.5],[1,0.5]];portConstraint=eastwest;rotatable=0;whiteSpace=wrap;html=1;" vertex="1" parent="6YLU8XS6Di3FJssSOhAg-2">
          <mxGeometry x="160" y="550" width="80" height="30" as="geometry" />
        </mxCell>
        <mxCell id="6YLU8XS6Di3FJssSOhAg-77" value="" style="endArrow=none;html=1;rounded=0;entryX=0;entryY=0.5;entryDx=0;entryDy=0;exitX=1;exitY=0.5;exitDx=0;exitDy=0;" edge="1" parent="6YLU8XS6Di3FJssSOhAg-2" source="6YLU8XS6Di3FJssSOhAg-35" target="6YLU8XS6Di3FJssSOhAg-39">
          <mxGeometry width="50" height="50" relative="1" as="geometry">
            <mxPoint x="380" y="310" as="sourcePoint" />
            <mxPoint x="430" y="260" as="targetPoint" />
          </mxGeometry>
        </mxCell>
        <mxCell id="6YLU8XS6Di3FJssSOhAg-78" value="Work on" style="text;strokeColor=none;fillColor=none;align=left;verticalAlign=middle;spacingLeft=4;spacingRight=4;overflow=hidden;points=[[0,0.5],[1,0.5]];portConstraint=eastwest;rotatable=0;whiteSpace=wrap;html=1;" vertex="1" parent="6YLU8XS6Di3FJssSOhAg-2">
          <mxGeometry x="330" y="476" width="70" height="30" as="geometry" />
        </mxCell>
        <mxCell id="6YLU8XS6Di3FJssSOhAg-80" value="0...*" style="text;strokeColor=none;fillColor=none;align=left;verticalAlign=middle;spacingLeft=4;spacingRight=4;overflow=hidden;points=[[0,0.5],[1,0.5]];portConstraint=eastwest;rotatable=0;whiteSpace=wrap;html=1;" vertex="1" parent="6YLU8XS6Di3FJssSOhAg-2">
          <mxGeometry x="190" y="440" width="40" height="30" as="geometry" />
        </mxCell>
        <mxCell id="6YLU8XS6Di3FJssSOhAg-81" value="0...*" style="text;strokeColor=none;fillColor=none;align=left;verticalAlign=middle;spacingLeft=4;spacingRight=4;overflow=hidden;points=[[0,0.5],[1,0.5]];portConstraint=eastwest;rotatable=0;whiteSpace=wrap;html=1;" vertex="1" parent="6YLU8XS6Di3FJssSOhAg-2">
          <mxGeometry x="570" y="540" width="40" height="30" as="geometry" />
        </mxCell>
        <mxCell id="6YLU8XS6Di3FJssSOhAg-83" value="" style="endArrow=none;html=1;rounded=0;exitX=1.007;exitY=0;exitDx=0;exitDy=0;exitPerimeter=0;entryX=0.529;entryY=1.115;entryDx=0;entryDy=0;entryPerimeter=0;" edge="1" parent="6YLU8XS6Di3FJssSOhAg-2" source="6YLU8XS6Di3FJssSOhAg-34" target="6YLU8XS6Di3FJssSOhAg-27">
          <mxGeometry width="50" height="50" relative="1" as="geometry">
            <mxPoint x="380" y="310" as="sourcePoint" />
            <mxPoint x="560" y="310" as="targetPoint" />
            <Array as="points">
              <mxPoint x="510" y="410" />
            </Array>
          </mxGeometry>
        </mxCell>
        <mxCell id="6YLU8XS6Di3FJssSOhAg-84" value="Registers" style="text;strokeColor=none;fillColor=none;align=left;verticalAlign=middle;spacingLeft=4;spacingRight=4;overflow=hidden;points=[[0,0.5],[1,0.5]];portConstraint=eastwest;rotatable=0;whiteSpace=wrap;html=1;" vertex="1" parent="6YLU8XS6Di3FJssSOhAg-2">
          <mxGeometry x="330" y="390" width="80" height="30" as="geometry" />
        </mxCell>
        <mxCell id="6YLU8XS6Di3FJssSOhAg-85" value="0...*" style="text;strokeColor=none;fillColor=none;align=left;verticalAlign=middle;spacingLeft=4;spacingRight=4;overflow=hidden;points=[[0,0.5],[1,0.5]];portConstraint=eastwest;rotatable=0;whiteSpace=wrap;html=1;" vertex="1" parent="6YLU8XS6Di3FJssSOhAg-2">
          <mxGeometry x="540" y="394" width="80" height="30" as="geometry" />
        </mxCell>
        <mxCell id="6YLU8XS6Di3FJssSOhAg-88" value="" style="endArrow=none;html=1;rounded=0;entryX=0.514;entryY=1.038;entryDx=0;entryDy=0;entryPerimeter=0;" edge="1" parent="6YLU8XS6Di3FJssSOhAg-2" target="6YLU8XS6Di3FJssSOhAg-23">
          <mxGeometry width="50" height="50" relative="1" as="geometry">
            <mxPoint x="70" y="315" as="sourcePoint" />
            <mxPoint x="430" y="260" as="targetPoint" />
            <Array as="points">
              <mxPoint x="180" y="350" />
            </Array>
          </mxGeometry>
        </mxCell>
        <mxCell id="6YLU8XS6Di3FJssSOhAg-91" value="Registers" style="text;strokeColor=none;fillColor=none;align=left;verticalAlign=middle;spacingLeft=4;spacingRight=4;overflow=hidden;points=[[0,0.5],[1,0.5]];portConstraint=eastwest;rotatable=0;whiteSpace=wrap;html=1;" vertex="1" parent="6YLU8XS6Di3FJssSOhAg-2">
          <mxGeometry x="150" y="320" width="80" height="30" as="geometry" />
        </mxCell>
        <mxCell id="6YLU8XS6Di3FJssSOhAg-93" value="0...*" style="text;strokeColor=none;fillColor=none;align=left;verticalAlign=middle;spacingLeft=4;spacingRight=4;overflow=hidden;points=[[0,0.5],[1,0.5]];portConstraint=eastwest;rotatable=0;whiteSpace=wrap;html=1;" vertex="1" parent="6YLU8XS6Di3FJssSOhAg-2">
          <mxGeometry x="280" y="310" width="80" height="30" as="geometry" />
        </mxCell>
        <mxCell id="6YLU8XS6Di3FJssSOhAg-94" value="0...*" style="text;strokeColor=none;fillColor=none;align=left;verticalAlign=middle;spacingLeft=4;spacingRight=4;overflow=hidden;points=[[0,0.5],[1,0.5]];portConstraint=eastwest;rotatable=0;whiteSpace=wrap;html=1;" vertex="1" parent="6YLU8XS6Di3FJssSOhAg-2">
          <mxGeometry x="40" y="310" width="80" height="30" as="geometry" />
        </mxCell>
        <mxCell id="6YLU8XS6Di3FJssSOhAg-36" value="Worker" style="swimlane;fontStyle=0;childLayout=stackLayout;horizontal=1;startSize=26;fillColor=none;horizontalStack=0;resizeParent=1;resizeParentMax=0;resizeLast=0;collapsible=1;marginBottom=0;whiteSpace=wrap;html=1;" vertex="1" parent="6YLU8XS6Di3FJssSOhAg-2">
          <mxGeometry x="610" y="486" width="170" height="208" as="geometry" />
        </mxCell>
        <mxCell id="6YLU8XS6Di3FJssSOhAg-37" value="+ int: workerId" style="text;strokeColor=none;fillColor=none;align=left;verticalAlign=top;spacingLeft=4;spacingRight=4;overflow=hidden;rotatable=0;points=[[0,0.5],[1,0.5]];portConstraint=eastwest;whiteSpace=wrap;html=1;" vertex="1" parent="6YLU8XS6Di3FJssSOhAg-36">
          <mxGeometry y="26" width="170" height="26" as="geometry" />
        </mxCell>
        <mxCell id="6YLU8XS6Di3FJssSOhAg-38" value="+ int: casinoId" style="text;strokeColor=none;fillColor=none;align=left;verticalAlign=top;spacingLeft=4;spacingRight=4;overflow=hidden;rotatable=0;points=[[0,0.5],[1,0.5]];portConstraint=eastwest;whiteSpace=wrap;html=1;" vertex="1" parent="6YLU8XS6Di3FJssSOhAg-36">
          <mxGeometry y="52" width="170" height="26" as="geometry" />
        </mxCell>
        <mxCell id="6YLU8XS6Di3FJssSOhAg-39" value="+ String: name" style="text;strokeColor=none;fillColor=none;align=left;verticalAlign=top;spacingLeft=4;spacingRight=4;overflow=hidden;rotatable=0;points=[[0,0.5],[1,0.5]];portConstraint=eastwest;whiteSpace=wrap;html=1;" vertex="1" parent="6YLU8XS6Di3FJssSOhAg-36">
          <mxGeometry y="78" width="170" height="26" as="geometry" />
        </mxCell>
        <mxCell id="6YLU8XS6Di3FJssSOhAg-192" value="+ String: surname" style="text;strokeColor=none;fillColor=none;align=left;verticalAlign=top;spacingLeft=4;spacingRight=4;overflow=hidden;rotatable=0;points=[[0,0.5],[1,0.5]];portConstraint=eastwest;whiteSpace=wrap;html=1;" vertex="1" parent="6YLU8XS6Di3FJssSOhAg-36">
          <mxGeometry y="104" width="170" height="26" as="geometry" />
        </mxCell>
        <mxCell id="6YLU8XS6Di3FJssSOhAg-193" value="+ float: salary" style="text;strokeColor=none;fillColor=none;align=left;verticalAlign=top;spacingLeft=4;spacingRight=4;overflow=hidden;rotatable=0;points=[[0,0.5],[1,0.5]];portConstraint=eastwest;whiteSpace=wrap;html=1;" vertex="1" parent="6YLU8XS6Di3FJssSOhAg-36">
          <mxGeometry y="130" width="170" height="26" as="geometry" />
        </mxCell>
        <mxCell id="6YLU8XS6Di3FJssSOhAg-194" value="+ String: addres" style="text;strokeColor=none;fillColor=none;align=left;verticalAlign=top;spacingLeft=4;spacingRight=4;overflow=hidden;rotatable=0;points=[[0,0.5],[1,0.5]];portConstraint=eastwest;whiteSpace=wrap;html=1;" vertex="1" parent="6YLU8XS6Di3FJssSOhAg-36">
          <mxGeometry y="156" width="170" height="26" as="geometry" />
        </mxCell>
        <mxCell id="6YLU8XS6Di3FJssSOhAg-195" value="+ Occupation: occupation" style="text;strokeColor=none;fillColor=none;align=left;verticalAlign=top;spacingLeft=4;spacingRight=4;overflow=hidden;rotatable=0;points=[[0,0.5],[1,0.5]];portConstraint=eastwest;whiteSpace=wrap;html=1;" vertex="1" parent="6YLU8XS6Di3FJssSOhAg-36">
          <mxGeometry y="182" width="170" height="26" as="geometry" />
        </mxCell>
        <mxCell id="6YLU8XS6Di3FJssSOhAg-112" value="0...*" style="text;strokeColor=none;fillColor=none;align=left;verticalAlign=middle;spacingLeft=4;spacingRight=4;overflow=hidden;points=[[0,0.5],[1,0.5]];portConstraint=eastwest;rotatable=0;whiteSpace=wrap;html=1;" vertex="1" parent="6YLU8XS6Di3FJssSOhAg-2">
          <mxGeometry x="180" y="394" width="40" height="30" as="geometry" />
        </mxCell>
        <mxCell id="6YLU8XS6Di3FJssSOhAg-52" value="1" style="text;html=1;strokeColor=none;fillColor=none;align=center;verticalAlign=middle;whiteSpace=wrap;rounded=0;" vertex="1" parent="6YLU8XS6Di3FJssSOhAg-2">
          <mxGeometry x="670" y="420" width="60" height="30" as="geometry" />
        </mxCell>
        <mxCell id="6YLU8XS6Di3FJssSOhAg-50" value="Has" style="text;html=1;strokeColor=none;fillColor=none;align=center;verticalAlign=middle;whiteSpace=wrap;rounded=0;" vertex="1" parent="6YLU8XS6Di3FJssSOhAg-2">
          <mxGeometry x="710" y="440" width="60" height="30" as="geometry" />
        </mxCell>
        <mxCell id="6YLU8XS6Di3FJssSOhAg-28" value="Shift" style="swimlane;fontStyle=0;childLayout=stackLayout;horizontal=1;startSize=26;fillColor=none;horizontalStack=0;resizeParent=1;resizeParentMax=0;resizeLast=0;collapsible=1;marginBottom=0;whiteSpace=wrap;html=1;" vertex="1" parent="6YLU8XS6Di3FJssSOhAg-2">
          <mxGeometry x="20" y="496" width="140" height="104" as="geometry" />
        </mxCell>
        <mxCell id="6YLU8XS6Di3FJssSOhAg-29" value="+ int: tableId" style="text;strokeColor=none;fillColor=none;align=left;verticalAlign=top;spacingLeft=4;spacingRight=4;overflow=hidden;rotatable=0;points=[[0,0.5],[1,0.5]];portConstraint=eastwest;whiteSpace=wrap;html=1;" vertex="1" parent="6YLU8XS6Di3FJssSOhAg-28">
          <mxGeometry y="26" width="140" height="26" as="geometry" />
        </mxCell>
        <mxCell id="6YLU8XS6Di3FJssSOhAg-30" value="+ int: croupierId" style="text;strokeColor=none;fillColor=none;align=left;verticalAlign=top;spacingLeft=4;spacingRight=4;overflow=hidden;rotatable=0;points=[[0,0.5],[1,0.5]];portConstraint=eastwest;whiteSpace=wrap;html=1;" vertex="1" parent="6YLU8XS6Di3FJssSOhAg-28">
          <mxGeometry y="52" width="140" height="26" as="geometry" />
        </mxCell>
        <mxCell id="6YLU8XS6Di3FJssSOhAg-31" value="+ int: timeStamp" style="text;strokeColor=none;fillColor=none;align=left;verticalAlign=top;spacingLeft=4;spacingRight=4;overflow=hidden;rotatable=0;points=[[0,0.5],[1,0.5]];portConstraint=eastwest;whiteSpace=wrap;html=1;" vertex="1" parent="6YLU8XS6Di3FJssSOhAg-28">
          <mxGeometry y="78" width="140" height="26" as="geometry" />
        </mxCell>
        <mxCell id="6YLU8XS6Di3FJssSOhAg-72" value="" style="endArrow=none;html=1;rounded=0;exitX=1;exitY=-0.115;exitDx=0;exitDy=0;exitPerimeter=0;entryX=0;entryY=0.5;entryDx=0;entryDy=0;" edge="1" parent="6YLU8XS6Di3FJssSOhAg-2" source="6YLU8XS6Di3FJssSOhAg-31" target="6YLU8XS6Di3FJssSOhAg-39">
          <mxGeometry width="50" height="50" relative="1" as="geometry">
            <mxPoint x="82" y="466" as="sourcePoint" />
            <mxPoint x="300" y="490" as="targetPoint" />
            <Array as="points">
              <mxPoint x="320" y="570" />
            </Array>
          </mxGeometry>
        </mxCell>
        <mxCell id="6YLU8XS6Di3FJssSOhAg-96" value="UI" style="swimlane;whiteSpace=wrap;html=1;" vertex="1" parent="1">
          <mxGeometry x="230" y="1030" width="190" height="140" as="geometry" />
        </mxCell>
        <mxCell id="6YLU8XS6Di3FJssSOhAg-97" value="Menu" style="swimlane;fontStyle=1;align=center;verticalAlign=top;childLayout=stackLayout;horizontal=1;startSize=26;horizontalStack=0;resizeParent=1;resizeParentMax=0;resizeLast=0;collapsible=1;marginBottom=0;whiteSpace=wrap;html=1;" vertex="1" parent="6YLU8XS6Di3FJssSOhAg-96">
          <mxGeometry x="15" y="37" width="160" height="86" as="geometry" />
        </mxCell>
        <mxCell id="6YLU8XS6Di3FJssSOhAg-98" value="- reader: BufferedReader" style="text;strokeColor=none;fillColor=none;align=left;verticalAlign=top;spacingLeft=4;spacingRight=4;overflow=hidden;rotatable=0;points=[[0,0.5],[1,0.5]];portConstraint=eastwest;whiteSpace=wrap;html=1;" vertex="1" parent="6YLU8XS6Di3FJssSOhAg-97">
          <mxGeometry y="26" width="160" height="26" as="geometry" />
        </mxCell>
        <mxCell id="6YLU8XS6Di3FJssSOhAg-99" value="" style="line;strokeWidth=1;fillColor=none;align=left;verticalAlign=middle;spacingTop=-1;spacingLeft=3;spacingRight=3;rotatable=0;labelPosition=right;points=[];portConstraint=eastwest;strokeColor=inherit;" vertex="1" parent="6YLU8XS6Di3FJssSOhAg-97">
          <mxGeometry y="52" width="160" height="8" as="geometry" />
        </mxCell>
        <mxCell id="6YLU8XS6Di3FJssSOhAg-100" value="+ main(args:String[]): void" style="text;strokeColor=none;fillColor=none;align=left;verticalAlign=top;spacingLeft=4;spacingRight=4;overflow=hidden;rotatable=0;points=[[0,0.5],[1,0.5]];portConstraint=eastwest;whiteSpace=wrap;html=1;" vertex="1" parent="6YLU8XS6Di3FJssSOhAg-97">
          <mxGeometry y="60" width="160" height="26" as="geometry" />
        </mxCell>
        <mxCell id="6YLU8XS6Di3FJssSOhAg-101" value="" style="endArrow=none;html=1;rounded=0;entryX=0.5;entryY=0;entryDx=0;entryDy=0;" edge="1" parent="1" target="6YLU8XS6Di3FJssSOhAg-96">
          <mxGeometry width="50" height="50" relative="1" as="geometry">
            <mxPoint x="320" y="740" as="sourcePoint" />
            <mxPoint x="680" y="480" as="targetPoint" />
          </mxGeometry>
        </mxCell>
        <mxCell id="6YLU8XS6Di3FJssSOhAg-102" value="Interfaces" style="swimlane;whiteSpace=wrap;html=1;" vertex="1" parent="1">
          <mxGeometry x="1050" y="40" width="1060" height="630" as="geometry" />
        </mxCell>
        <mxCell id="6YLU8XS6Di3FJssSOhAg-103" value="«interface»&lt;br&gt;&lt;b&gt;BancaryAccountManager&lt;/b&gt;" style="html=1;whiteSpace=wrap;" vertex="1" parent="6YLU8XS6Di3FJssSOhAg-102">
          <mxGeometry x="50" y="50" width="290" height="60" as="geometry" />
        </mxCell>
        <mxCell id="6YLU8XS6Di3FJssSOhAg-104" value="«interface»&lt;br&gt;&lt;b&gt;ClientManager&lt;/b&gt;" style="html=1;whiteSpace=wrap;" vertex="1" parent="6YLU8XS6Di3FJssSOhAg-102">
          <mxGeometry x="390" y="50" width="165" height="60" as="geometry" />
        </mxCell>
        <mxCell id="6YLU8XS6Di3FJssSOhAg-105" value="«interface»&lt;br&gt;&lt;b&gt;GameManager&lt;/b&gt;" style="html=1;whiteSpace=wrap;" vertex="1" parent="6YLU8XS6Di3FJssSOhAg-102">
          <mxGeometry x="600" y="50" width="180" height="60" as="geometry" />
        </mxCell>
        <mxCell id="6YLU8XS6Di3FJssSOhAg-106" value="«interface»&lt;br&gt;&lt;b&gt;MachineManager&lt;/b&gt;" style="html=1;whiteSpace=wrap;" vertex="1" parent="6YLU8XS6Di3FJssSOhAg-102">
          <mxGeometry x="50" y="280" width="210" height="60" as="geometry" />
        </mxCell>
        <mxCell id="6YLU8XS6Di3FJssSOhAg-107" value="«interface»&lt;br&gt;&lt;b&gt;MatchManager&lt;/b&gt;" style="html=1;whiteSpace=wrap;" vertex="1" parent="6YLU8XS6Di3FJssSOhAg-102">
          <mxGeometry x="830" y="50" width="210" height="60" as="geometry" />
        </mxCell>
        <mxCell id="6YLU8XS6Di3FJssSOhAg-108" value="«interface»&lt;br&gt;&lt;b&gt;ShiftManager&lt;/b&gt;" style="html=1;whiteSpace=wrap;" vertex="1" parent="6YLU8XS6Di3FJssSOhAg-102">
          <mxGeometry x="310" y="280" width="210" height="60" as="geometry" />
        </mxCell>
        <mxCell id="6YLU8XS6Di3FJssSOhAg-109" value="«interface»&lt;br&gt;&lt;b&gt;WorkerManager&lt;/b&gt;" style="html=1;whiteSpace=wrap;" vertex="1" parent="6YLU8XS6Di3FJssSOhAg-102">
          <mxGeometry x="800" y="280" width="210" height="60" as="geometry" />
        </mxCell>
        <mxCell id="6YLU8XS6Di3FJssSOhAg-110" value="«interface»&lt;br&gt;&lt;b&gt;TableManager&lt;/b&gt;" style="html=1;whiteSpace=wrap;" vertex="1" parent="6YLU8XS6Di3FJssSOhAg-102">
          <mxGeometry x="560" y="280" width="210" height="60" as="geometry" />
        </mxCell>
        <mxCell id="6YLU8XS6Di3FJssSOhAg-196" value="" style="rounded=0;whiteSpace=wrap;html=1;" vertex="1" parent="6YLU8XS6Di3FJssSOhAg-102">
          <mxGeometry x="50" y="110" width="290" height="90" as="geometry" />
        </mxCell>
        <mxCell id="6YLU8XS6Di3FJssSOhAg-198" value="+ addBancaryAccount(BA: BancaryAccount): void" style="text;strokeColor=none;fillColor=none;align=left;verticalAlign=top;spacingLeft=4;spacingRight=4;overflow=hidden;rotatable=0;points=[[0,0.5],[1,0.5]];portConstraint=eastwest;whiteSpace=wrap;html=1;" vertex="1" parent="6YLU8XS6Di3FJssSOhAg-102">
          <mxGeometry x="50" y="110" width="280" height="26" as="geometry" />
        </mxCell>
        <mxCell id="6YLU8XS6Di3FJssSOhAg-199" value="+ getBancaryAccount(): BancaryAccount" style="text;strokeColor=none;fillColor=none;align=left;verticalAlign=top;spacingLeft=4;spacingRight=4;overflow=hidden;rotatable=0;points=[[0,0.5],[1,0.5]];portConstraint=eastwest;whiteSpace=wrap;html=1;" vertex="1" parent="6YLU8XS6Di3FJssSOhAg-102">
          <mxGeometry x="50" y="136" width="280" height="26" as="geometry" />
        </mxCell>
        <mxCell id="6YLU8XS6Di3FJssSOhAg-200" value="+ updateBancaryAccount(BA: BancaryAccount): void" style="text;strokeColor=none;fillColor=none;align=left;verticalAlign=top;spacingLeft=4;spacingRight=4;overflow=hidden;rotatable=0;points=[[0,0.5],[1,0.5]];portConstraint=eastwest;whiteSpace=wrap;html=1;" vertex="1" parent="6YLU8XS6Di3FJssSOhAg-102">
          <mxGeometry x="50" y="162" width="300" height="26" as="geometry" />
        </mxCell>
        <mxCell id="6YLU8XS6Di3FJssSOhAg-204" value="" style="rounded=0;whiteSpace=wrap;html=1;" vertex="1" parent="6YLU8XS6Di3FJssSOhAg-102">
          <mxGeometry x="600" y="110" width="180" height="130" as="geometry" />
        </mxCell>
        <mxCell id="6YLU8XS6Di3FJssSOhAg-206" value="+ addGame(g: Game): void" style="text;strokeColor=none;fillColor=none;align=left;verticalAlign=top;spacingLeft=4;spacingRight=4;overflow=hidden;rotatable=0;points=[[0,0.5],[1,0.5]];portConstraint=eastwest;whiteSpace=wrap;html=1;" vertex="1" parent="6YLU8XS6Di3FJssSOhAg-102">
          <mxGeometry x="600" y="110" width="160" height="26" as="geometry" />
        </mxCell>
        <mxCell id="6YLU8XS6Di3FJssSOhAg-207" value="+ getListOfGame(): List&amp;lt;Game&amp;gt;" style="text;strokeColor=none;fillColor=none;align=left;verticalAlign=top;spacingLeft=4;spacingRight=4;overflow=hidden;rotatable=0;points=[[0,0.5],[1,0.5]];portConstraint=eastwest;whiteSpace=wrap;html=1;" vertex="1" parent="6YLU8XS6Di3FJssSOhAg-102">
          <mxGeometry x="600" y="136" width="190" height="26" as="geometry" />
        </mxCell>
        <mxCell id="6YLU8XS6Di3FJssSOhAg-209" value="+ updateGame(g: Game): void" style="text;strokeColor=none;fillColor=none;align=left;verticalAlign=top;spacingLeft=4;spacingRight=4;overflow=hidden;rotatable=0;points=[[0,0.5],[1,0.5]];portConstraint=eastwest;whiteSpace=wrap;html=1;" vertex="1" parent="6YLU8XS6Di3FJssSOhAg-102">
          <mxGeometry x="600" y="162" width="180" height="26" as="geometry" />
        </mxCell>
        <mxCell id="6YLU8XS6Di3FJssSOhAg-210" value="+ deleteGame(g: Game): void" style="text;strokeColor=none;fillColor=none;align=left;verticalAlign=top;spacingLeft=4;spacingRight=4;overflow=hidden;rotatable=0;points=[[0,0.5],[1,0.5]];portConstraint=eastwest;whiteSpace=wrap;html=1;" vertex="1" parent="6YLU8XS6Di3FJssSOhAg-102">
          <mxGeometry x="600" y="188" width="180" height="26" as="geometry" />
        </mxCell>
        <mxCell id="6YLU8XS6Di3FJssSOhAg-211" value="+ getGame(): Game" style="text;strokeColor=none;fillColor=none;align=left;verticalAlign=top;spacingLeft=4;spacingRight=4;overflow=hidden;rotatable=0;points=[[0,0.5],[1,0.5]];portConstraint=eastwest;whiteSpace=wrap;html=1;" vertex="1" parent="6YLU8XS6Di3FJssSOhAg-102">
          <mxGeometry x="600" y="214" width="180" height="26" as="geometry" />
        </mxCell>
        <mxCell id="6YLU8XS6Di3FJssSOhAg-212" value="" style="rounded=0;whiteSpace=wrap;html=1;" vertex="1" parent="6YLU8XS6Di3FJssSOhAg-102">
          <mxGeometry x="50" y="340" width="210" height="140" as="geometry" />
        </mxCell>
        <mxCell id="6YLU8XS6Di3FJssSOhAg-213" value="+ addMachine(M: Machine): void" style="text;strokeColor=none;fillColor=none;align=left;verticalAlign=top;spacingLeft=4;spacingRight=4;overflow=hidden;rotatable=0;points=[[0,0.5],[1,0.5]];portConstraint=eastwest;whiteSpace=wrap;html=1;" vertex="1" parent="6YLU8XS6Di3FJssSOhAg-102">
          <mxGeometry x="50" y="340" width="200" height="26" as="geometry" />
        </mxCell>
        <mxCell id="6YLU8XS6Di3FJssSOhAg-214" value="+ removeMachine(M: Machine): void" style="text;strokeColor=none;fillColor=none;align=left;verticalAlign=top;spacingLeft=4;spacingRight=4;overflow=hidden;rotatable=0;points=[[0,0.5],[1,0.5]];portConstraint=eastwest;whiteSpace=wrap;html=1;" vertex="1" parent="6YLU8XS6Di3FJssSOhAg-102">
          <mxGeometry x="50" y="366" width="210" height="26" as="geometry" />
        </mxCell>
        <mxCell id="6YLU8XS6Di3FJssSOhAg-215" value="+ updateMachine(M: Machine): void" style="text;strokeColor=none;fillColor=none;align=left;verticalAlign=top;spacingLeft=4;spacingRight=4;overflow=hidden;rotatable=0;points=[[0,0.5],[1,0.5]];portConstraint=eastwest;whiteSpace=wrap;html=1;" vertex="1" parent="6YLU8XS6Di3FJssSOhAg-102">
          <mxGeometry x="50" y="392" width="210" height="26" as="geometry" />
        </mxCell>
        <mxCell id="6YLU8XS6Di3FJssSOhAg-216" value="+ getListOfMachine(): List&amp;lt;Machine&amp;gt;" style="text;strokeColor=none;fillColor=none;align=left;verticalAlign=top;spacingLeft=4;spacingRight=4;overflow=hidden;rotatable=0;points=[[0,0.5],[1,0.5]];portConstraint=eastwest;whiteSpace=wrap;html=1;" vertex="1" parent="6YLU8XS6Di3FJssSOhAg-102">
          <mxGeometry x="50" y="418" width="210" height="26" as="geometry" />
        </mxCell>
        <mxCell id="6YLU8XS6Di3FJssSOhAg-217" value="+ getMachine(): Machine" style="text;strokeColor=none;fillColor=none;align=left;verticalAlign=top;spacingLeft=4;spacingRight=4;overflow=hidden;rotatable=0;points=[[0,0.5],[1,0.5]];portConstraint=eastwest;whiteSpace=wrap;html=1;" vertex="1" parent="6YLU8XS6Di3FJssSOhAg-102">
          <mxGeometry x="50" y="444" width="180" height="26" as="geometry" />
        </mxCell>
        <mxCell id="6YLU8XS6Di3FJssSOhAg-218" value="" style="rounded=0;whiteSpace=wrap;html=1;" vertex="1" parent="6YLU8XS6Di3FJssSOhAg-102">
          <mxGeometry x="310" y="340" width="210" height="140" as="geometry" />
        </mxCell>
        <mxCell id="6YLU8XS6Di3FJssSOhAg-219" value="+ addShift(s: Shift): void" style="text;strokeColor=none;fillColor=none;align=left;verticalAlign=top;spacingLeft=4;spacingRight=4;overflow=hidden;rotatable=0;points=[[0,0.5],[1,0.5]];portConstraint=eastwest;whiteSpace=wrap;html=1;" vertex="1" parent="6YLU8XS6Di3FJssSOhAg-102">
          <mxGeometry x="310" y="340" width="200" height="26" as="geometry" />
        </mxCell>
        <mxCell id="6YLU8XS6Di3FJssSOhAg-220" value="+ removeShift(s: Shift): void" style="text;strokeColor=none;fillColor=none;align=left;verticalAlign=top;spacingLeft=4;spacingRight=4;overflow=hidden;rotatable=0;points=[[0,0.5],[1,0.5]];portConstraint=eastwest;whiteSpace=wrap;html=1;" vertex="1" parent="6YLU8XS6Di3FJssSOhAg-102">
          <mxGeometry x="310" y="366" width="210" height="26" as="geometry" />
        </mxCell>
        <mxCell id="6YLU8XS6Di3FJssSOhAg-221" value="+ updateShift(s: Shift): void" style="text;strokeColor=none;fillColor=none;align=left;verticalAlign=top;spacingLeft=4;spacingRight=4;overflow=hidden;rotatable=0;points=[[0,0.5],[1,0.5]];portConstraint=eastwest;whiteSpace=wrap;html=1;" vertex="1" parent="6YLU8XS6Di3FJssSOhAg-102">
          <mxGeometry x="310" y="392" width="210" height="26" as="geometry" />
        </mxCell>
        <mxCell id="6YLU8XS6Di3FJssSOhAg-222" value="+ getListOfShift(): List&amp;lt;Shift&amp;gt;" style="text;strokeColor=none;fillColor=none;align=left;verticalAlign=top;spacingLeft=4;spacingRight=4;overflow=hidden;rotatable=0;points=[[0,0.5],[1,0.5]];portConstraint=eastwest;whiteSpace=wrap;html=1;" vertex="1" parent="6YLU8XS6Di3FJssSOhAg-102">
          <mxGeometry x="310" y="418" width="210" height="26" as="geometry" />
        </mxCell>
        <mxCell id="6YLU8XS6Di3FJssSOhAg-223" value="+ getShift(): Shift" style="text;strokeColor=none;fillColor=none;align=left;verticalAlign=top;spacingLeft=4;spacingRight=4;overflow=hidden;rotatable=0;points=[[0,0.5],[1,0.5]];portConstraint=eastwest;whiteSpace=wrap;html=1;" vertex="1" parent="6YLU8XS6Di3FJssSOhAg-102">
          <mxGeometry x="310" y="444" width="180" height="26" as="geometry" />
        </mxCell>
        <mxCell id="6YLU8XS6Di3FJssSOhAg-224" value="" style="rounded=0;whiteSpace=wrap;html=1;" vertex="1" parent="6YLU8XS6Di3FJssSOhAg-102">
          <mxGeometry x="560" y="340" width="210" height="140" as="geometry" />
        </mxCell>
        <mxCell id="6YLU8XS6Di3FJssSOhAg-225" value="+ addTable(T: Table): void" style="text;strokeColor=none;fillColor=none;align=left;verticalAlign=top;spacingLeft=4;spacingRight=4;overflow=hidden;rotatable=0;points=[[0,0.5],[1,0.5]];portConstraint=eastwest;whiteSpace=wrap;html=1;" vertex="1" parent="6YLU8XS6Di3FJssSOhAg-102">
          <mxGeometry x="560" y="340" width="200" height="26" as="geometry" />
        </mxCell>
        <mxCell id="6YLU8XS6Di3FJssSOhAg-226" value="+ removeTable(T: Table): void" style="text;strokeColor=none;fillColor=none;align=left;verticalAlign=top;spacingLeft=4;spacingRight=4;overflow=hidden;rotatable=0;points=[[0,0.5],[1,0.5]];portConstraint=eastwest;whiteSpace=wrap;html=1;" vertex="1" parent="6YLU8XS6Di3FJssSOhAg-102">
          <mxGeometry x="560" y="366" width="210" height="26" as="geometry" />
        </mxCell>
        <mxCell id="6YLU8XS6Di3FJssSOhAg-227" value="+ updateTable(T: Table): void" style="text;strokeColor=none;fillColor=none;align=left;verticalAlign=top;spacingLeft=4;spacingRight=4;overflow=hidden;rotatable=0;points=[[0,0.5],[1,0.5]];portConstraint=eastwest;whiteSpace=wrap;html=1;" vertex="1" parent="6YLU8XS6Di3FJssSOhAg-102">
          <mxGeometry x="560" y="392" width="210" height="26" as="geometry" />
        </mxCell>
        <mxCell id="6YLU8XS6Di3FJssSOhAg-228" value="+ getListOfTable(): List&amp;lt;Table&amp;gt;" style="text;strokeColor=none;fillColor=none;align=left;verticalAlign=top;spacingLeft=4;spacingRight=4;overflow=hidden;rotatable=0;points=[[0,0.5],[1,0.5]];portConstraint=eastwest;whiteSpace=wrap;html=1;" vertex="1" parent="6YLU8XS6Di3FJssSOhAg-102">
          <mxGeometry x="560" y="418" width="210" height="26" as="geometry" />
        </mxCell>
        <mxCell id="6YLU8XS6Di3FJssSOhAg-229" value="+ getTable(): Table" style="text;strokeColor=none;fillColor=none;align=left;verticalAlign=top;spacingLeft=4;spacingRight=4;overflow=hidden;rotatable=0;points=[[0,0.5],[1,0.5]];portConstraint=eastwest;whiteSpace=wrap;html=1;" vertex="1" parent="6YLU8XS6Di3FJssSOhAg-102">
          <mxGeometry x="560" y="444" width="180" height="26" as="geometry" />
        </mxCell>
        <mxCell id="6YLU8XS6Di3FJssSOhAg-230" value="" style="rounded=0;whiteSpace=wrap;html=1;" vertex="1" parent="6YLU8XS6Di3FJssSOhAg-102">
          <mxGeometry x="800" y="340" width="210" height="140" as="geometry" />
        </mxCell>
        <mxCell id="6YLU8XS6Di3FJssSOhAg-231" value="+ addWorker(w: Worker): void" style="text;strokeColor=none;fillColor=none;align=left;verticalAlign=top;spacingLeft=4;spacingRight=4;overflow=hidden;rotatable=0;points=[[0,0.5],[1,0.5]];portConstraint=eastwest;whiteSpace=wrap;html=1;" vertex="1" parent="6YLU8XS6Di3FJssSOhAg-102">
          <mxGeometry x="800" y="340" width="200" height="26" as="geometry" />
        </mxCell>
        <mxCell id="6YLU8XS6Di3FJssSOhAg-232" value="+ removeWorker(w: Worker): void" style="text;strokeColor=none;fillColor=none;align=left;verticalAlign=top;spacingLeft=4;spacingRight=4;overflow=hidden;rotatable=0;points=[[0,0.5],[1,0.5]];portConstraint=eastwest;whiteSpace=wrap;html=1;" vertex="1" parent="6YLU8XS6Di3FJssSOhAg-102">
          <mxGeometry x="800" y="366" width="210" height="26" as="geometry" />
        </mxCell>
        <mxCell id="6YLU8XS6Di3FJssSOhAg-233" value="+ updateWorker(w: Worker): void" style="text;strokeColor=none;fillColor=none;align=left;verticalAlign=top;spacingLeft=4;spacingRight=4;overflow=hidden;rotatable=0;points=[[0,0.5],[1,0.5]];portConstraint=eastwest;whiteSpace=wrap;html=1;" vertex="1" parent="6YLU8XS6Di3FJssSOhAg-102">
          <mxGeometry x="800" y="392" width="210" height="26" as="geometry" />
        </mxCell>
        <mxCell id="6YLU8XS6Di3FJssSOhAg-234" value="+ getListOfWorker(): List&amp;lt;Worker&amp;gt;" style="text;strokeColor=none;fillColor=none;align=left;verticalAlign=top;spacingLeft=4;spacingRight=4;overflow=hidden;rotatable=0;points=[[0,0.5],[1,0.5]];portConstraint=eastwest;whiteSpace=wrap;html=1;" vertex="1" parent="6YLU8XS6Di3FJssSOhAg-102">
          <mxGeometry x="800" y="418" width="210" height="26" as="geometry" />
        </mxCell>
        <mxCell id="6YLU8XS6Di3FJssSOhAg-235" value="+ getWorker(): Worker" style="text;strokeColor=none;fillColor=none;align=left;verticalAlign=top;spacingLeft=4;spacingRight=4;overflow=hidden;rotatable=0;points=[[0,0.5],[1,0.5]];portConstraint=eastwest;whiteSpace=wrap;html=1;" vertex="1" parent="6YLU8XS6Di3FJssSOhAg-102">
          <mxGeometry x="800" y="444" width="180" height="26" as="geometry" />
        </mxCell>
        <mxCell id="6YLU8XS6Di3FJssSOhAg-243" value="" style="rounded=0;whiteSpace=wrap;html=1;" vertex="1" parent="6YLU8XS6Di3FJssSOhAg-102">
          <mxGeometry x="830" y="110" width="210" height="140" as="geometry" />
        </mxCell>
        <mxCell id="6YLU8XS6Di3FJssSOhAg-244" value="+ addMatch(m: Match): void" style="text;strokeColor=none;fillColor=none;align=left;verticalAlign=top;spacingLeft=4;spacingRight=4;overflow=hidden;rotatable=0;points=[[0,0.5],[1,0.5]];portConstraint=eastwest;whiteSpace=wrap;html=1;" vertex="1" parent="6YLU8XS6Di3FJssSOhAg-102">
          <mxGeometry x="830" y="110" width="200" height="26" as="geometry" />
        </mxCell>
        <mxCell id="6YLU8XS6Di3FJssSOhAg-245" value="+ removeMatch(m: Match): void" style="text;strokeColor=none;fillColor=none;align=left;verticalAlign=top;spacingLeft=4;spacingRight=4;overflow=hidden;rotatable=0;points=[[0,0.5],[1,0.5]];portConstraint=eastwest;whiteSpace=wrap;html=1;" vertex="1" parent="6YLU8XS6Di3FJssSOhAg-102">
          <mxGeometry x="830" y="136" width="210" height="26" as="geometry" />
        </mxCell>
        <mxCell id="6YLU8XS6Di3FJssSOhAg-246" value="+ updateMatch(m: Match): void" style="text;strokeColor=none;fillColor=none;align=left;verticalAlign=top;spacingLeft=4;spacingRight=4;overflow=hidden;rotatable=0;points=[[0,0.5],[1,0.5]];portConstraint=eastwest;whiteSpace=wrap;html=1;" vertex="1" parent="6YLU8XS6Di3FJssSOhAg-102">
          <mxGeometry x="830" y="162" width="210" height="26" as="geometry" />
        </mxCell>
        <mxCell id="6YLU8XS6Di3FJssSOhAg-247" value="+ getListOfMatch(): List&amp;lt;Match&amp;gt;" style="text;strokeColor=none;fillColor=none;align=left;verticalAlign=top;spacingLeft=4;spacingRight=4;overflow=hidden;rotatable=0;points=[[0,0.5],[1,0.5]];portConstraint=eastwest;whiteSpace=wrap;html=1;" vertex="1" parent="6YLU8XS6Di3FJssSOhAg-102">
          <mxGeometry x="830" y="188" width="210" height="26" as="geometry" />
        </mxCell>
        <mxCell id="6YLU8XS6Di3FJssSOhAg-248" value="+ getMatch(): Match" style="text;strokeColor=none;fillColor=none;align=left;verticalAlign=top;spacingLeft=4;spacingRight=4;overflow=hidden;rotatable=0;points=[[0,0.5],[1,0.5]];portConstraint=eastwest;whiteSpace=wrap;html=1;" vertex="1" parent="6YLU8XS6Di3FJssSOhAg-102">
          <mxGeometry x="830" y="214" width="180" height="26" as="geometry" />
        </mxCell>
        <mxCell id="6YLU8XS6Di3FJssSOhAg-293" value="" style="triangle;whiteSpace=wrap;html=1;rotation=-105;" vertex="1" parent="6YLU8XS6Di3FJssSOhAg-102">
          <mxGeometry x="672.12" y="481.62" width="14.22" height="12.58" as="geometry" />
        </mxCell>
        <mxCell id="6YLU8XS6Di3FJssSOhAg-295" value="" style="triangle;whiteSpace=wrap;html=1;rotation=-120;" vertex="1" parent="6YLU8XS6Di3FJssSOhAg-102">
          <mxGeometry x="143.08" y="476" width="15" height="20" as="geometry" />
        </mxCell>
        <mxCell id="6YLU8XS6Di3FJssSOhAg-296" value="" style="triangle;whiteSpace=wrap;html=1;rotation=129;" vertex="1" parent="6YLU8XS6Di3FJssSOhAg-102">
          <mxGeometry x="200" y="34.72" width="13.17" height="15.28" as="geometry" />
        </mxCell>
        <mxCell id="6YLU8XS6Di3FJssSOhAg-297" value="" style="triangle;whiteSpace=wrap;html=1;rotation=130;" vertex="1" parent="6YLU8XS6Di3FJssSOhAg-102">
          <mxGeometry x="472.33" y="31.36" width="20" height="22" as="geometry" />
        </mxCell>
        <mxCell id="6YLU8XS6Di3FJssSOhAg-298" value="" style="triangle;whiteSpace=wrap;html=1;rotation=-118;" vertex="1" parent="6YLU8XS6Di3FJssSOhAg-102">
          <mxGeometry x="670" y="240" width="20" height="20" as="geometry" />
        </mxCell>
        <mxCell id="6YLU8XS6Di3FJssSOhAg-249" value="" style="endArrow=none;html=1;rounded=0;" edge="1" parent="1">
          <mxGeometry width="50" height="50" relative="1" as="geometry">
            <mxPoint x="420" y="1120" as="sourcePoint" />
            <mxPoint x="1360" y="670" as="targetPoint" />
            <Array as="points">
              <mxPoint x="1360" y="1120" />
            </Array>
          </mxGeometry>
        </mxCell>
        <mxCell id="6YLU8XS6Di3FJssSOhAg-250" value="jdbc" style="swimlane;whiteSpace=wrap;html=1;" vertex="1" parent="1">
          <mxGeometry x="2280" y="40" width="820" height="630" as="geometry" />
        </mxCell>
        <mxCell id="6YLU8XS6Di3FJssSOhAg-251" value="JDBCBancaryAccount" style="swimlane;fontStyle=0;childLayout=stackLayout;horizontal=1;startSize=26;fillColor=none;horizontalStack=0;resizeParent=1;resizeParentMax=0;resizeLast=0;collapsible=1;marginBottom=0;whiteSpace=wrap;html=1;" vertex="1" parent="6YLU8XS6Di3FJssSOhAg-250">
          <mxGeometry x="70" y="58" width="260" height="52" as="geometry" />
        </mxCell>
        <mxCell id="6YLU8XS6Di3FJssSOhAg-252" value="+ JDBCBancaryAccount(m: JDBCManager)" style="text;strokeColor=none;fillColor=none;align=left;verticalAlign=top;spacingLeft=4;spacingRight=4;overflow=hidden;rotatable=0;points=[[0,0.5],[1,0.5]];portConstraint=eastwest;whiteSpace=wrap;html=1;" vertex="1" parent="6YLU8XS6Di3FJssSOhAg-251">
          <mxGeometry y="26" width="260" height="26" as="geometry" />
        </mxCell>
        <mxCell id="6YLU8XS6Di3FJssSOhAg-257" value="JDBCGame" style="swimlane;fontStyle=0;childLayout=stackLayout;horizontal=1;startSize=26;fillColor=none;horizontalStack=0;resizeParent=1;resizeParentMax=0;resizeLast=0;collapsible=1;marginBottom=0;whiteSpace=wrap;html=1;" vertex="1" parent="6YLU8XS6Di3FJssSOhAg-250">
          <mxGeometry x="70" y="237" width="260" height="52" as="geometry" />
        </mxCell>
        <mxCell id="6YLU8XS6Di3FJssSOhAg-258" value="+ JDBCGame(m: JDBCManager)" style="text;strokeColor=none;fillColor=none;align=left;verticalAlign=top;spacingLeft=4;spacingRight=4;overflow=hidden;rotatable=0;points=[[0,0.5],[1,0.5]];portConstraint=eastwest;whiteSpace=wrap;html=1;" vertex="1" parent="6YLU8XS6Di3FJssSOhAg-257">
          <mxGeometry y="26" width="260" height="26" as="geometry" />
        </mxCell>
        <mxCell id="6YLU8XS6Di3FJssSOhAg-259" value="JDBCMachine" style="swimlane;fontStyle=0;childLayout=stackLayout;horizontal=1;startSize=26;fillColor=none;horizontalStack=0;resizeParent=1;resizeParentMax=0;resizeLast=0;collapsible=1;marginBottom=0;whiteSpace=wrap;html=1;" vertex="1" parent="6YLU8XS6Di3FJssSOhAg-250">
          <mxGeometry x="70" y="320" width="260" height="52" as="geometry" />
        </mxCell>
        <mxCell id="6YLU8XS6Di3FJssSOhAg-260" value="+ JDBCMachine(m: JDBCManager)" style="text;strokeColor=none;fillColor=none;align=left;verticalAlign=top;spacingLeft=4;spacingRight=4;overflow=hidden;rotatable=0;points=[[0,0.5],[1,0.5]];portConstraint=eastwest;whiteSpace=wrap;html=1;" vertex="1" parent="6YLU8XS6Di3FJssSOhAg-259">
          <mxGeometry y="26" width="260" height="26" as="geometry" />
        </mxCell>
        <mxCell id="6YLU8XS6Di3FJssSOhAg-261" value="JDBCTable" style="swimlane;fontStyle=0;childLayout=stackLayout;horizontal=1;startSize=26;fillColor=none;horizontalStack=0;resizeParent=1;resizeParentMax=0;resizeLast=0;collapsible=1;marginBottom=0;whiteSpace=wrap;html=1;" vertex="1" parent="6YLU8XS6Di3FJssSOhAg-250">
          <mxGeometry x="70" y="410" width="260" height="52" as="geometry" />
        </mxCell>
        <mxCell id="6YLU8XS6Di3FJssSOhAg-262" value="+ JDBCTable(m: JDBCManager)" style="text;strokeColor=none;fillColor=none;align=left;verticalAlign=top;spacingLeft=4;spacingRight=4;overflow=hidden;rotatable=0;points=[[0,0.5],[1,0.5]];portConstraint=eastwest;whiteSpace=wrap;html=1;" vertex="1" parent="6YLU8XS6Di3FJssSOhAg-261">
          <mxGeometry y="26" width="260" height="26" as="geometry" />
        </mxCell>
        <mxCell id="6YLU8XS6Di3FJssSOhAg-263" value="JDBCWorker" style="swimlane;fontStyle=0;childLayout=stackLayout;horizontal=1;startSize=26;fillColor=none;horizontalStack=0;resizeParent=1;resizeParentMax=0;resizeLast=0;collapsible=1;marginBottom=0;whiteSpace=wrap;html=1;" vertex="1" parent="6YLU8XS6Di3FJssSOhAg-250">
          <mxGeometry x="70" y="500" width="260" height="52" as="geometry" />
        </mxCell>
        <mxCell id="6YLU8XS6Di3FJssSOhAg-264" value="+ JDBCWorker(m: JDBCManager)" style="text;strokeColor=none;fillColor=none;align=left;verticalAlign=top;spacingLeft=4;spacingRight=4;overflow=hidden;rotatable=0;points=[[0,0.5],[1,0.5]];portConstraint=eastwest;whiteSpace=wrap;html=1;" vertex="1" parent="6YLU8XS6Di3FJssSOhAg-263">
          <mxGeometry y="26" width="260" height="26" as="geometry" />
        </mxCell>
        <mxCell id="6YLU8XS6Di3FJssSOhAg-265" value="JDBCManager" style="swimlane;fontStyle=0;childLayout=stackLayout;horizontal=1;startSize=26;fillColor=none;horizontalStack=0;resizeParent=1;resizeParentMax=0;resizeLast=0;collapsible=1;marginBottom=0;whiteSpace=wrap;html=1;" vertex="1" parent="6YLU8XS6Di3FJssSOhAg-250">
          <mxGeometry x="510" y="252" width="260" height="50" as="geometry" />
        </mxCell>
        <mxCell id="6YLU8XS6Di3FJssSOhAg-266" value="- c: Connection" style="text;strokeColor=none;fillColor=none;align=left;verticalAlign=top;spacingLeft=4;spacingRight=4;overflow=hidden;rotatable=0;points=[[0,0.5],[1,0.5]];portConstraint=eastwest;whiteSpace=wrap;html=1;" vertex="1" parent="6YLU8XS6Di3FJssSOhAg-265">
          <mxGeometry y="26" width="260" height="24" as="geometry" />
        </mxCell>
        <mxCell id="6YLU8XS6Di3FJssSOhAg-269" value="" style="rounded=0;whiteSpace=wrap;html=1;" vertex="1" parent="6YLU8XS6Di3FJssSOhAg-250">
          <mxGeometry x="510" y="302" width="260" height="80" as="geometry" />
        </mxCell>
        <mxCell id="6YLU8XS6Di3FJssSOhAg-270" value="+ getConnection(): Connection-" style="text;strokeColor=none;fillColor=none;align=left;verticalAlign=top;spacingLeft=4;spacingRight=4;overflow=hidden;rotatable=0;points=[[0,0.5],[1,0.5]];portConstraint=eastwest;whiteSpace=wrap;html=1;" vertex="1" parent="6YLU8XS6Di3FJssSOhAg-250">
          <mxGeometry x="510" y="302" width="260" height="40" as="geometry" />
        </mxCell>
        <mxCell id="6YLU8XS6Di3FJssSOhAg-271" value="+ disconnect(): void" style="text;strokeColor=none;fillColor=none;align=left;verticalAlign=top;spacingLeft=4;spacingRight=4;overflow=hidden;rotatable=0;points=[[0,0.5],[1,0.5]];portConstraint=eastwest;whiteSpace=wrap;html=1;" vertex="1" parent="6YLU8XS6Di3FJssSOhAg-250">
          <mxGeometry x="510" y="322" width="260" height="30" as="geometry" />
        </mxCell>
        <mxCell id="6YLU8XS6Di3FJssSOhAg-272" value="+ createTables()" style="text;strokeColor=none;fillColor=none;align=left;verticalAlign=top;spacingLeft=4;spacingRight=4;overflow=hidden;rotatable=0;points=[[0,0.5],[1,0.5]];portConstraint=eastwest;whiteSpace=wrap;html=1;" vertex="1" parent="6YLU8XS6Di3FJssSOhAg-250">
          <mxGeometry x="510" y="344" width="260" height="30" as="geometry" />
        </mxCell>
        <mxCell id="6YLU8XS6Di3FJssSOhAg-273" value="" style="endArrow=none;html=1;rounded=0;exitX=0;exitY=0.5;exitDx=0;exitDy=0;entryX=1.008;entryY=0.038;entryDx=0;entryDy=0;entryPerimeter=0;" edge="1" parent="6YLU8XS6Di3FJssSOhAg-250" source="6YLU8XS6Di3FJssSOhAg-270" target="6YLU8XS6Di3FJssSOhAg-252">
          <mxGeometry width="50" height="50" relative="1" as="geometry">
            <mxPoint x="520" y="290" as="sourcePoint" />
            <mxPoint x="570" y="240" as="targetPoint" />
            <Array as="points">
              <mxPoint x="470" y="85" />
            </Array>
          </mxGeometry>
        </mxCell>
        <mxCell id="6YLU8XS6Di3FJssSOhAg-276" value="" style="endArrow=none;html=1;rounded=0;exitX=-0.008;exitY=-0.1;exitDx=0;exitDy=0;exitPerimeter=0;" edge="1" parent="6YLU8XS6Di3FJssSOhAg-250" source="6YLU8XS6Di3FJssSOhAg-271">
          <mxGeometry width="50" height="50" relative="1" as="geometry">
            <mxPoint x="520" y="290" as="sourcePoint" />
            <mxPoint x="330" y="360" as="targetPoint" />
          </mxGeometry>
        </mxCell>
        <mxCell id="6YLU8XS6Di3FJssSOhAg-278" value="" style="endArrow=none;html=1;rounded=0;entryX=1;entryY=0.5;entryDx=0;entryDy=0;exitX=0;exitY=-0.1;exitDx=0;exitDy=0;exitPerimeter=0;" edge="1" parent="6YLU8XS6Di3FJssSOhAg-250" source="6YLU8XS6Di3FJssSOhAg-271" target="6YLU8XS6Di3FJssSOhAg-263">
          <mxGeometry width="50" height="50" relative="1" as="geometry">
            <mxPoint x="520" y="290" as="sourcePoint" />
            <mxPoint x="570" y="240" as="targetPoint" />
            <Array as="points">
              <mxPoint x="480" y="510" />
            </Array>
          </mxGeometry>
        </mxCell>
        <mxCell id="6YLU8XS6Di3FJssSOhAg-255" value="JDBCClient" style="swimlane;fontStyle=0;childLayout=stackLayout;horizontal=1;startSize=26;fillColor=none;horizontalStack=0;resizeParent=1;resizeParentMax=0;resizeLast=0;collapsible=1;marginBottom=0;whiteSpace=wrap;html=1;" vertex="1" parent="1">
          <mxGeometry x="2350" y="188" width="260" height="52" as="geometry" />
        </mxCell>
        <mxCell id="6YLU8XS6Di3FJssSOhAg-256" value="+ JDBCClient(m: JDBCManager)" style="text;strokeColor=none;fillColor=none;align=left;verticalAlign=top;spacingLeft=4;spacingRight=4;overflow=hidden;rotatable=0;points=[[0,0.5],[1,0.5]];portConstraint=eastwest;whiteSpace=wrap;html=1;" vertex="1" parent="6YLU8XS6Di3FJssSOhAg-255">
          <mxGeometry y="26" width="260" height="26" as="geometry" />
        </mxCell>
        <mxCell id="6YLU8XS6Di3FJssSOhAg-274" value="" style="endArrow=none;html=1;rounded=0;entryX=1;entryY=0.5;entryDx=0;entryDy=0;" edge="1" parent="1" target="6YLU8XS6Di3FJssSOhAg-256">
          <mxGeometry width="50" height="50" relative="1" as="geometry">
            <mxPoint x="2790" y="360" as="sourcePoint" />
            <mxPoint x="2850" y="280" as="targetPoint" />
            <Array as="points">
              <mxPoint x="2710" y="220" />
            </Array>
          </mxGeometry>
        </mxCell>
        <mxCell id="6YLU8XS6Di3FJssSOhAg-275" value="" style="endArrow=none;html=1;rounded=0;entryX=0.996;entryY=0.077;entryDx=0;entryDy=0;entryPerimeter=0;" edge="1" parent="1" target="6YLU8XS6Di3FJssSOhAg-258">
          <mxGeometry width="50" height="50" relative="1" as="geometry">
            <mxPoint x="2790" y="360" as="sourcePoint" />
            <mxPoint x="2850" y="280" as="targetPoint" />
          </mxGeometry>
        </mxCell>
        <mxCell id="6YLU8XS6Di3FJssSOhAg-277" value="" style="endArrow=none;html=1;rounded=0;entryX=1;entryY=0.5;entryDx=0;entryDy=0;" edge="1" parent="1" target="6YLU8XS6Di3FJssSOhAg-262">
          <mxGeometry width="50" height="50" relative="1" as="geometry">
            <mxPoint x="2790" y="360" as="sourcePoint" />
            <mxPoint x="2850" y="280" as="targetPoint" />
            <Array as="points">
              <mxPoint x="2710" y="489" />
            </Array>
          </mxGeometry>
        </mxCell>
        <mxCell id="6YLU8XS6Di3FJssSOhAg-282" value="" style="endArrow=none;dashed=1;html=1;rounded=0;exitX=0;exitY=0.5;exitDx=0;exitDy=0;entryX=0;entryY=0.25;entryDx=0;entryDy=0;" edge="1" parent="1" source="6YLU8XS6Di3FJssSOhAg-290" target="6YLU8XS6Di3FJssSOhAg-263">
          <mxGeometry width="50" height="50" relative="1" as="geometry">
            <mxPoint x="2800" y="430" as="sourcePoint" />
            <mxPoint x="2850" y="380" as="targetPoint" />
            <Array as="points">
              <mxPoint x="2150" y="560" />
            </Array>
          </mxGeometry>
        </mxCell>
        <mxCell id="6YLU8XS6Di3FJssSOhAg-284" value="" style="endArrow=none;dashed=1;html=1;dashPattern=1 3;strokeWidth=2;rounded=0;exitX=0;exitY=0.154;exitDx=0;exitDy=0;exitPerimeter=0;entryX=0;entryY=0.5;entryDx=0;entryDy=0;" edge="1" parent="1" source="6YLU8XS6Di3FJssSOhAg-262" target="6YLU8XS6Di3FJssSOhAg-293">
          <mxGeometry width="50" height="50" relative="1" as="geometry">
            <mxPoint x="2360" y="430" as="sourcePoint" />
            <mxPoint x="1740" y="590" as="targetPoint" />
            <Array as="points">
              <mxPoint x="2030" y="600" />
            </Array>
          </mxGeometry>
        </mxCell>
        <mxCell id="6YLU8XS6Di3FJssSOhAg-285" value="" style="endArrow=none;dashed=1;html=1;dashPattern=1 3;strokeWidth=2;rounded=0;entryX=-0.012;entryY=0.269;entryDx=0;entryDy=0;entryPerimeter=0;exitX=0;exitY=0.5;exitDx=0;exitDy=0;" edge="1" parent="1" source="6YLU8XS6Di3FJssSOhAg-295" target="6YLU8XS6Di3FJssSOhAg-260">
          <mxGeometry width="50" height="50" relative="1" as="geometry">
            <mxPoint x="1200" y="570" as="sourcePoint" />
            <mxPoint x="2250" y="380" as="targetPoint" />
            <Array as="points">
              <mxPoint x="1780" y="710" />
            </Array>
          </mxGeometry>
        </mxCell>
        <mxCell id="6YLU8XS6Di3FJssSOhAg-286" value="" style="endArrow=none;dashed=1;html=1;dashPattern=1 3;strokeWidth=2;rounded=0;entryX=-0.015;entryY=0.038;entryDx=0;entryDy=0;entryPerimeter=0;exitX=0;exitY=0.5;exitDx=0;exitDy=0;" edge="1" parent="1" source="6YLU8XS6Di3FJssSOhAg-298" target="6YLU8XS6Di3FJssSOhAg-258">
          <mxGeometry width="50" height="50" relative="1" as="geometry">
            <mxPoint x="1840" y="430" as="sourcePoint" />
            <mxPoint x="1890" y="380" as="targetPoint" />
            <Array as="points">
              <mxPoint x="1890" y="304" />
            </Array>
          </mxGeometry>
        </mxCell>
        <mxCell id="6YLU8XS6Di3FJssSOhAg-288" value="" style="endArrow=none;dashed=1;html=1;rounded=0;entryX=-0.012;entryY=0.038;entryDx=0;entryDy=0;entryPerimeter=0;exitX=0;exitY=0.5;exitDx=0;exitDy=0;" edge="1" parent="1" source="6YLU8XS6Di3FJssSOhAg-297" target="6YLU8XS6Di3FJssSOhAg-256">
          <mxGeometry width="50" height="50" relative="1" as="geometry">
            <mxPoint x="1840" y="400" as="sourcePoint" />
            <mxPoint x="1890" y="350" as="targetPoint" />
            <Array as="points">
              <mxPoint x="1930" y="10" />
            </Array>
          </mxGeometry>
        </mxCell>
        <mxCell id="6YLU8XS6Di3FJssSOhAg-289" value="" style="endArrow=none;dashed=1;html=1;rounded=0;entryX=-0.004;entryY=0.269;entryDx=0;entryDy=0;entryPerimeter=0;exitX=-0.042;exitY=0.395;exitDx=0;exitDy=0;exitPerimeter=0;" edge="1" parent="1" source="6YLU8XS6Di3FJssSOhAg-296" target="6YLU8XS6Di3FJssSOhAg-252">
          <mxGeometry width="50" height="50" relative="1" as="geometry">
            <mxPoint x="1840" y="400" as="sourcePoint" />
            <mxPoint x="1890" y="350" as="targetPoint" />
            <Array as="points">
              <mxPoint x="1710" y="10" />
            </Array>
          </mxGeometry>
        </mxCell>
        <mxCell id="6YLU8XS6Di3FJssSOhAg-290" value="" style="triangle;whiteSpace=wrap;html=1;rotation=-165;" vertex="1" parent="1">
          <mxGeometry x="2062.83" y="413.17" width="20" height="22" as="geometry" />
        </mxCell>
      </root>
    </mxGraphModel>
  </diagram>
</mxfile>
